<svg xmlns="http://www.w3.org/2000/svg" viewBox="0 0 100 100">
  <circle cx="50" cy="50" r="48" fill="#ffffff" stroke="#000000" stroke-width="2"/>
  <g fill="#000000">
    <!-- Pentagon central -->
    <polygon points="50,20 62,32 56,48 44,48 38,32"/>
    <!-- Hexágonos alrededor -->
    <polygon points="50,20 38,32 30,24 36,12 48,14"/>
    <polygon points="62,32 70,24 78,30 76,42 64,44 56,48"/>
    <polygon points="44,48 36,52 24,50 22,38 30,32 38,32"/>
    <polygon points="56,48 64,52 62,64 50,68 44,56"/>
    <polygon points="44,56 36,60 30,70 34,78 46,76 50,68"/>
    <polygon points="50,68 62,64 70,70 66,80 54,82"/>
  </g>
</svg>
